<svg width="737" height="737" viewBox="0 0 737 737" fill="none" xmlns="http://www.w3.org/2000/svg">
<path d="M657.464 420.696C635.734 540.798 540.787 635.744 420.702 657.474C401.811 660.9 388.088 677.349 388.088 696.562V696.618C388.088 721.339 410.424 740.135 434.766 735.763C587.692 708.26 708.269 587.665 735.773 434.741C740.145 410.418 721.349 388.082 696.628 388.082H696.571C677.358 388.082 660.89 401.805 657.464 420.696Z" fill="url(#paint0_linear_3949_60)"/>
<path d="M39.8632 388.084H39.8064C15.0853 388.084 -3.71099 410.42 0.661564 434.762C28.1651 587.686 148.761 708.28 301.687 735.784C326.01 740.156 348.365 721.36 348.365 696.639V696.583C348.365 677.389 334.642 660.921 315.751 657.495C195.647 635.765 100.7 540.819 78.9701 420.717C75.5251 401.807 59.0759 388.084 39.8632 388.084Z" fill="url(#paint1_linear_3949_60)"/>
<path d="M39.7929 348.315H39.8497C59.0435 348.315 75.5116 334.592 78.9378 315.701C100.668 195.599 195.615 100.653 315.718 78.923C334.609 75.4969 348.333 59.048 348.333 39.8354V39.7786C348.333 15.0578 325.997 -3.7383 301.654 0.634214C148.728 28.1375 28.1328 148.732 0.629195 301.656C-3.72443 325.979 15.0719 348.315 39.7929 348.315Z" fill="url(#paint2_linear_3949_60)"/>
<path d="M388.088 39.7786V39.8354C388.088 59.029 401.811 75.4969 420.702 78.9229C540.787 100.653 635.734 195.599 657.464 315.701C660.89 334.592 677.339 348.315 696.552 348.315H696.609C721.33 348.315 740.126 325.979 735.754 301.656C708.269 148.732 587.673 28.1375 434.747 0.634214C410.424 -3.7383 388.088 15.0578 388.088 39.7786Z" fill="url(#paint3_linear_3949_60)"/>
<path d="M221.081 249.182C202.057 230.158 170.087 235.156 157.669 259.006C140.633 291.714 131.018 328.852 131.018 368.205C131.018 407.557 140.652 444.695 157.669 477.404C170.087 501.254 202.057 506.251 221.081 487.228C233.404 474.905 236.129 456.034 228.104 440.569C216.86 418.877 210.5 394.269 210.5 368.205C210.5 342.14 216.86 317.533 228.104 295.841C236.148 280.376 233.423 261.523 221.081 249.182Z" fill="url(#paint4_linear_3949_60)"/>
<path d="M515.34 249.172C503.017 261.494 500.291 280.366 508.317 295.831C519.561 317.523 525.921 342.13 525.921 368.195C525.921 394.259 519.561 418.867 508.317 440.559C500.291 456.042 503.017 474.895 515.34 487.218C534.363 506.241 566.334 501.244 578.751 477.394C595.787 444.685 605.403 407.547 605.403 368.195C605.403 328.842 595.768 291.704 578.751 258.996C566.334 235.146 534.344 230.167 515.34 249.172Z" fill="url(#paint5_linear_3949_60)"/>
<path d="M368.196 525.884C342.131 525.884 317.523 519.523 295.85 508.28C280.366 500.254 261.513 502.98 249.171 515.302L249.152 515.321C230.129 534.344 235.126 566.315 258.977 578.732C291.686 595.768 328.824 605.384 368.177 605.384C407.53 605.384 444.668 595.749 477.377 578.732C501.228 566.315 506.225 534.344 487.201 515.321L487.182 515.302C474.86 502.98 455.988 500.254 440.504 508.28C418.849 519.523 394.261 525.884 368.196 525.884Z" fill="url(#paint6_linear_3949_60)"/>
<path d="M368.198 130.969C328.845 130.969 291.688 140.603 258.998 157.62C235.148 170.037 230.15 202.008 249.174 221.031L249.193 221.05C261.516 233.373 280.388 236.098 295.871 228.073C317.545 216.829 342.171 210.469 368.217 210.469C394.282 210.469 418.871 216.829 440.544 228.073C456.028 236.098 474.881 233.373 487.223 221.05L487.242 221.031C506.265 202.008 501.268 170.037 477.418 157.62C444.69 140.603 407.551 130.969 368.198 130.969Z" fill="url(#paint7_linear_3949_60)"/>
<defs>
<linearGradient id="paint0_linear_3949_60" x1="426.64" y1="737.452" x2="739.831" y2="427.465" gradientUnits="userSpaceOnUse">
<stop stop-color="#EE4A02" stop-opacity="0"/>
<stop offset="1" stop-color="#EE4A02"/>
</linearGradient>
<linearGradient id="paint1_linear_3949_60" x1="1.95573" y1="428.473" x2="306.595" y2="737.926" gradientUnits="userSpaceOnUse">
<stop stop-color="#8BC731" stop-opacity="0"/>
<stop offset="1" stop-color="#8BC731"/>
</linearGradient>
<linearGradient id="paint2_linear_3949_60" x1="311.69" y1="-0.737359" x2="-7.37943" y2="311.922" gradientUnits="userSpaceOnUse">
<stop stop-color="#1CAAE8" stop-opacity="0"/>
<stop offset="1" stop-color="#1CAAE8"/>
</linearGradient>
<linearGradient id="paint3_linear_3949_60" x1="737.418" y1="305.927" x2="426.365" y2="0.215482" gradientUnits="userSpaceOnUse">
<stop stop-color="#00878D" stop-opacity="0"/>
<stop offset="1" stop-color="#00878D"/>
</linearGradient>
<linearGradient id="paint4_linear_3949_60" x1="181.156" y1="244.678" x2="183.294" y2="487.32" gradientUnits="userSpaceOnUse">
<stop stop-color="#0B71D5" stop-opacity="0"/>
<stop offset="1" stop-color="#0B71D5"/>
</linearGradient>
<linearGradient id="paint5_linear_3949_60" x1="552.325" y1="486.455" x2="555.531" y2="254.502" gradientUnits="userSpaceOnUse">
<stop offset="0.00828474" stop-color="#AFD200" stop-opacity="0"/>
<stop offset="1" stop-color="#AFD200"/>
</linearGradient>
<linearGradient id="paint6_linear_3949_60" x1="248.338" y1="554.886" x2="486.707" y2="553.817" gradientUnits="userSpaceOnUse">
<stop offset="0.00828474" stop-color="#F59201" stop-opacity="0"/>
<stop offset="1" stop-color="#F59201"/>
</linearGradient>
<linearGradient id="paint7_linear_3949_60" x1="487.111" y1="180.808" x2="247.673" y2="184.015" gradientUnits="userSpaceOnUse">
<stop stop-color="#05B3BA" stop-opacity="0"/>
<stop offset="1" stop-color="#05B3BA"/>
</linearGradient>
</defs>
</svg>
