<svg width="45" height="44" viewBox="0 0 45 44" fill="none" xmlns="http://www.w3.org/2000/svg">
<path d="M33.0388 4.83002C30.4031 19.3981 18.8866 30.9148 4.32115 33.5506C2.0298 33.9662 0.365234 35.9614 0.365234 38.2919V38.2988C0.365234 41.2973 3.07445 43.5773 6.02703 43.0469C24.576 39.7108 39.2011 25.083 42.5371 6.53366C43.0675 3.5833 40.7876 0.874023 37.7891 0.874023H37.7822C35.4518 0.874023 33.4544 2.53862 33.0388 4.83002Z" fill="url(#paint0_linear_3287_4435)"/>
<path d="M6.63847 0.874023H6.63158C3.63308 0.874023 1.3532 3.58329 1.88357 6.53594C5.21957 25.0853 19.847 39.7131 38.396 43.0492C41.3462 43.5795 44.0578 41.2996 44.0578 38.3011V38.2942C44.0578 35.966 42.3932 33.9685 40.1018 33.5529C25.5341 30.9171 14.0176 19.4004 11.3819 4.83232C10.964 2.53862 8.96885 0.874023 6.63847 0.874023Z" fill="url(#paint1_linear_3287_4435)"/>
<path d="M5.19186 43.1238H5.19875C7.52683 43.1238 9.52431 41.4592 9.93987 39.1678C12.5756 24.5997 24.0921 13.083 38.6598 10.4472C40.9512 10.0316 42.6157 8.0364 42.6157 5.70597V5.69907C42.6157 2.7005 39.9065 0.420577 36.9539 0.950952C18.405 4.28703 3.77756 18.9148 0.441552 37.4642C-0.0865154 40.4145 2.19336 43.1238 5.19186 43.1238Z" fill="url(#paint2_linear_3287_4435)"/>
<path d="M0.365234 5.69907V5.70597C0.365234 8.03411 2.0298 10.0316 4.32115 10.4472C18.8866 13.083 30.4031 24.5997 33.0388 39.1678C33.4544 41.4592 35.4496 43.1238 37.7799 43.1238H37.7868C40.7853 43.1238 43.0652 40.4145 42.5348 37.4642C39.2011 18.9148 24.5737 4.28703 6.02474 0.950952C3.07445 0.420577 0.365234 2.7005 0.365234 5.69907Z" fill="url(#paint3_linear_3287_4435)"/>
<defs>
<linearGradient id="paint0_linear_3287_4435" x1="5.04138" y1="43.2518" x2="43.0307" y2="5.65237" gradientUnits="userSpaceOnUse">
<stop stop-color="#EE4A02" stop-opacity="0"/>
<stop offset="1" stop-color="#EE4A02"/>
</linearGradient>
<linearGradient id="paint1_linear_3287_4435" x1="2.04054" y1="5.77313" x2="38.9926" y2="43.3078" gradientUnits="userSpaceOnUse">
<stop stop-color="#8BC731" stop-opacity="0"/>
<stop offset="1" stop-color="#8BC731"/>
</linearGradient>
<linearGradient id="paint2_linear_3287_4435" x1="38.1712" y1="0.784584" x2="-0.531126" y2="38.7082" gradientUnits="userSpaceOnUse">
<stop stop-color="#1CAAE8" stop-opacity="0"/>
<stop offset="1" stop-color="#1CAAE8"/>
</linearGradient>
<linearGradient id="paint3_linear_3287_4435" x1="42.7368" y1="37.9823" x2="5.0068" y2="0.90143" gradientUnits="userSpaceOnUse">
<stop stop-color="#00878D" stop-opacity="0"/>
<stop offset="1" stop-color="#00878D"/>
</linearGradient>
</defs>
</svg>
