<svg width="43" height="44" viewBox="0 0 43 44" fill="none" xmlns="http://www.w3.org/2000/svg">
<path d="M18.4138 38.1401C20.3973 27.177 29.0639 18.5101 40.025 16.5266C41.7493 16.2138 43.002 14.7123 43.002 12.9586V12.9534C43.002 10.6968 40.9632 8.98108 38.7412 9.38021C24.7824 11.8908 13.7764 22.8988 11.2659 36.8581C10.8668 39.0783 12.5825 41.1172 14.839 41.1172H14.8442C16.5979 41.1172 18.101 39.8645 18.4138 38.1401Z" fill="url(#paint0_linear_3287_4446)"/>
<path d="M28.6939 43.126H28.6991C30.9556 43.126 32.6713 41.0871 32.2722 38.8651C29.7617 24.9059 18.754 13.8978 4.79514 11.3873C2.57493 10.9882 0.534412 12.7039 0.534412 14.9605V14.9656C0.534412 16.7177 1.78706 18.2209 3.5114 18.5336C14.4742 20.5172 23.1408 29.184 25.1243 40.1472C25.4388 41.8733 26.9402 43.126 28.6939 43.126Z" fill="url(#paint1_linear_3287_4446)"/>
<path d="M35.1471 32.6689H35.1419C33.3899 32.6689 31.8867 31.4162 31.574 29.6918C29.5905 18.7287 20.9239 10.0618 9.96107 8.07826C8.23673 7.76552 6.98409 6.26403 6.98409 4.51028V4.50509C6.98409 2.24853 9.02288 0.532785 11.2448 0.931916C25.2036 3.44247 36.2114 14.4505 38.7219 28.4097C39.1193 30.63 37.4036 32.6689 35.1471 32.6689Z" fill="url(#paint2_linear_3287_4446)"/>
<path d="M36.5586 4.50509V4.51028C36.5586 6.26231 35.3059 7.76552 33.5816 8.07826C22.6205 10.0618 13.9539 18.7287 11.9704 29.6918C11.6577 31.4162 10.1562 32.6689 8.40252 32.6689H8.39733C6.14083 32.6689 4.42514 30.63 4.82426 28.4097C7.33301 14.4505 18.3408 3.44247 32.2996 0.931916C34.5198 0.532785 36.5586 2.24853 36.5586 4.50509Z" fill="url(#paint3_linear_3287_4446)"/>
<defs>
<linearGradient id="paint0_linear_3287_4446" x1="39.483" y1="9.226" x2="10.8943" y2="37.5211" gradientUnits="userSpaceOnUse">
<stop stop-color="#EE4A02" stop-opacity="0"/>
<stop offset="1" stop-color="#EE4A02"/>
</linearGradient>
<linearGradient id="paint1_linear_3287_4446" x1="32.1541" y1="39.4392" x2="4.34599" y2="11.1929" gradientUnits="userSpaceOnUse">
<stop stop-color="#8BC731" stop-opacity="0"/>
<stop offset="1" stop-color="#8BC731"/>
</linearGradient>
<linearGradient id="paint2_linear_3287_4446" x1="10.3287" y1="0.806716" x2="39.454" y2="29.3457" gradientUnits="userSpaceOnUse">
<stop stop-color="#1CAAE8" stop-opacity="0"/>
<stop offset="1" stop-color="#1CAAE8"/>
</linearGradient>
<linearGradient id="paint3_linear_3287_4446" x1="4.67232" y1="28.7996" x2="33.0658" y2="0.894817" gradientUnits="userSpaceOnUse">
<stop stop-color="#00878D" stop-opacity="0"/>
<stop offset="1" stop-color="#00878D"/>
</linearGradient>
</defs>
</svg>
