<svg width="35" height="44" viewBox="0 0 35 44" fill="none" xmlns="http://www.w3.org/2000/svg">
<path d="M4.05589 43.1262H4.06158C5.98494 43.1262 7.63516 41.751 7.97848 39.858C10.156 27.8226 19.6704 18.3081 31.7056 16.1305C33.5986 15.7872 34.9738 14.1389 34.9738 12.2136V12.2079C34.9738 9.73062 32.7355 7.84707 30.2963 8.28523C14.972 11.0413 2.88746 23.126 0.131409 38.4505C-0.304855 40.8879 1.57867 43.1262 4.05589 43.1262Z" fill="url(#paint0_linear_3287_4441)"/>
<path d="M0.0683594 12.2079V12.2136C0.0683594 14.137 1.44354 15.7872 3.33655 16.1305C15.3699 18.3081 24.8842 27.8226 27.0618 39.858C27.4051 41.751 29.0534 43.1262 30.9787 43.1262H30.9844C33.4616 43.1262 35.3451 40.8879 34.9069 38.4505C32.1528 23.126 20.0683 11.0413 4.74398 8.28523C2.30659 7.84707 0.0683594 9.73062 0.0683594 12.2079Z" fill="url(#paint1_linear_3287_4441)"/>
<ellipse cx="17.1003" cy="5.74006" rx="4.86597" ry="4.86604" fill="url(#paint2_linear_3287_4441)"/>
<defs>
<linearGradient id="paint0_linear_3287_4441" x1="31.3019" y1="8.14779" x2="-0.671886" y2="39.4785" gradientUnits="userSpaceOnUse">
<stop stop-color="#1CAAE8" stop-opacity="0"/>
<stop offset="1" stop-color="#1CAAE8"/>
</linearGradient>
<linearGradient id="paint1_linear_3287_4441" x1="35.0738" y1="38.8785" x2="3.90328" y2="8.24404" gradientUnits="userSpaceOnUse">
<stop stop-color="#00878D" stop-opacity="0"/>
<stop offset="1" stop-color="#00878D"/>
</linearGradient>
<linearGradient id="paint2_linear_3287_4441" x1="17.1003" y1="0.874023" x2="17.1003" y2="10.6061" gradientUnits="userSpaceOnUse">
<stop stop-color="#8BC731"/>
<stop offset="1" stop-color="#8BC731" stop-opacity="0.2"/>
</linearGradient>
</defs>
</svg>
