<svg width="28" height="28" viewBox="0 0 28 28" fill="none" xmlns="http://www.w3.org/2000/svg">
<path d="M24.6377 15.7652C23.8234 20.266 20.2653 23.8241 15.7652 24.6385C15.0572 24.7668 14.543 25.3833 14.543 26.1033V26.1054C14.543 27.0318 15.38 27.7362 16.2922 27.5723C22.0231 26.5416 26.5416 22.0224 27.5723 16.2915C27.7362 15.38 27.0318 14.543 26.1054 14.543H26.1033C25.3833 14.543 24.7661 15.0572 24.6377 15.7652Z" fill="url(#paint0_linear_3085_2428)"/>
<path d="M1.49283 14.543H1.49071C0.564293 14.543 -0.140093 15.38 0.0237672 16.2922C1.05445 22.0231 5.57373 26.5423 11.3046 27.573C12.2161 27.7369 13.0538 27.0325 13.0538 26.1061V26.104C13.0538 25.3847 12.5396 24.7676 11.8316 24.6392C7.33079 23.8248 3.77269 20.2667 2.95835 15.7659C2.82925 15.0572 2.21283 14.543 1.49283 14.543Z" fill="url(#paint1_linear_3085_2428)"/>
<path d="M1.49123 13.0531H1.49335C2.21264 13.0531 2.82977 12.5389 2.95817 11.8309C3.7725 7.33009 7.33061 3.77198 11.8314 2.95764C12.5394 2.82925 13.0537 2.21283 13.0537 1.49284V1.49071C13.0537 0.564292 12.2166 -0.140093 11.3044 0.0237672C5.57354 1.05445 1.05427 5.57373 0.0235789 11.3046C-0.139572 12.2161 0.564814 13.0531 1.49123 13.0531Z" fill="url(#paint2_linear_3085_2428)"/>
<path d="M14.543 1.49071V1.49284C14.543 2.21212 15.0572 2.82925 15.7652 2.95764C20.2653 3.77198 23.8234 7.33009 24.6377 11.8309C24.7661 12.5389 25.3826 13.0531 26.1026 13.0531H26.1047C27.0311 13.0531 27.7355 12.2161 27.5716 11.3046C26.5416 5.57373 22.0224 1.05445 16.2915 0.0237672C15.38 -0.140093 14.543 0.564292 14.543 1.49071Z" fill="url(#paint3_linear_3085_2428)"/>
<path d="M8.28525 9.33865C7.57235 8.62575 6.37426 8.81302 5.90892 9.7068C5.27051 10.9326 4.91016 12.3243 4.91016 13.7991C4.91016 15.2738 5.27122 16.6655 5.90892 17.8913C6.37426 18.7851 7.57235 18.9723 8.28525 18.2595C8.74704 17.7977 8.84918 17.0904 8.54842 16.5109C8.12706 15.698 7.88872 14.7758 7.88872 13.7991C7.88872 12.8223 8.12706 11.9001 8.54842 11.0872C8.84989 10.5077 8.74775 9.80115 8.28525 9.33865Z" fill="url(#paint4_linear_3085_2428)"/>
<path d="M19.3128 9.33835C18.851 9.80014 18.7488 10.5074 19.0496 11.0869C19.471 11.8998 19.7093 12.822 19.7093 13.7987C19.7093 14.7755 19.471 15.6977 19.0496 16.5106C18.7488 17.0908 18.851 17.7974 19.3128 18.2592C20.0257 18.972 21.2238 18.7848 21.6891 17.891C22.3275 16.6652 22.6879 15.2735 22.6879 13.7987C22.6879 12.324 22.3268 10.9323 21.6891 9.7065C21.2238 8.81272 20.025 8.62616 19.3128 9.33835Z" fill="url(#paint5_linear_3085_2428)"/>
<path d="M13.7978 19.7074C12.821 19.7074 11.8989 19.469 11.0867 19.0477C10.5064 18.7469 9.7999 18.849 9.3374 19.3108L9.3367 19.3115C8.6238 20.0244 8.81107 21.2225 9.70485 21.6879C10.9306 22.3263 12.3224 22.6866 13.7971 22.6866C15.2718 22.6866 16.6636 22.3256 17.8893 21.6879C18.7831 21.2225 18.9704 20.0244 18.2575 19.3115L18.2568 19.3108C17.795 18.849 17.0878 18.7469 16.5075 19.0477C15.696 19.469 14.7746 19.7074 13.7978 19.7074Z" fill="url(#paint6_linear_3085_2428)"/>
<path d="M13.7991 4.9082C12.3243 4.9082 10.9319 5.26926 9.7068 5.90697C8.81302 6.37231 8.62575 7.5704 9.33865 8.2833L9.33936 8.28401C9.80115 8.7458 10.5084 8.84794 11.0886 8.54717C11.9008 8.12582 12.8237 7.88748 13.7998 7.88748C14.7765 7.88748 15.698 8.12582 16.5102 8.54717C17.0904 8.84794 17.797 8.7458 18.2595 8.28401L18.2602 8.2833C18.9731 7.5704 18.7858 6.37231 17.892 5.90697C16.6655 5.26926 15.2738 4.9082 13.7991 4.9082Z" fill="url(#paint7_linear_3085_2428)"/>
<defs>
<linearGradient id="paint0_linear_3085_2428" x1="15.9877" y1="27.6356" x2="27.7245" y2="16.019" gradientUnits="userSpaceOnUse">
<stop stop-color="#444746" stop-opacity="0"/>
<stop offset="1" stop-color="#444746"/>
</linearGradient>
<linearGradient id="paint1_linear_3085_2428" x1="0.0722655" y1="16.0566" x2="11.4886" y2="27.6532" gradientUnits="userSpaceOnUse">
<stop stop-color="#444746" stop-opacity="0"/>
<stop offset="1" stop-color="#444746"/>
</linearGradient>
<linearGradient id="paint2_linear_3085_2428" x1="11.6805" y1="-0.0276326" x2="-0.276669" y2="11.6892" gradientUnits="userSpaceOnUse">
<stop stop-color="#444746" stop-opacity="0"/>
<stop offset="1" stop-color="#444746"/>
</linearGradient>
<linearGradient id="paint3_linear_3085_2428" x1="27.634" y1="11.4646" x2="15.9773" y2="0.00820362" gradientUnits="userSpaceOnUse">
<stop stop-color="#444746" stop-opacity="0"/>
<stop offset="1" stop-color="#444746"/>
</linearGradient>
<linearGradient id="paint4_linear_3085_2428" x1="6.78909" y1="9.16986" x2="6.8692" y2="18.2629" gradientUnits="userSpaceOnUse">
<stop stop-color="#444746" stop-opacity="0"/>
<stop offset="1" stop-color="#444746"/>
</linearGradient>
<linearGradient id="paint5_linear_3085_2428" x1="20.6988" y1="18.2306" x2="20.819" y2="9.5381" gradientUnits="userSpaceOnUse">
<stop offset="0.00828474" stop-color="#444746" stop-opacity="0"/>
<stop offset="1" stop-color="#444746"/>
</linearGradient>
<linearGradient id="paint6_linear_3085_2428" x1="9.30616" y1="20.7942" x2="18.239" y2="20.7542" gradientUnits="userSpaceOnUse">
<stop offset="0.00828474" stop-color="#444746" stop-opacity="0"/>
<stop offset="1" stop-color="#444746"/>
</linearGradient>
<linearGradient id="paint7_linear_3085_2428" x1="18.2553" y1="6.77592" x2="9.28239" y2="6.8961" gradientUnits="userSpaceOnUse">
<stop stop-color="#444746" stop-opacity="0"/>
<stop offset="1" stop-color="#444746"/>
</linearGradient>
</defs>
</svg>
