<svg width="236" height="27" viewBox="0 0 236 27" fill="none" xmlns="http://www.w3.org/2000/svg">
<path d="M2.48399 26.3212H2.48754C3.68567 26.3212 4.71366 25.4646 4.92753 24.2853C6.284 16.7881 12.2109 10.8613 19.7081 9.50478C20.8873 9.29091 21.744 8.26411 21.744 7.0648V7.06125C21.744 5.51809 20.3497 4.34477 18.8301 4.61771C9.28406 6.33457 1.75613 13.8625 0.0392762 23.4086C-0.23249 24.9269 0.940832 26.3212 2.48399 26.3212Z" fill="url(#paint0_linear_3085_2585)"/>
<path d="M0 7.06125V7.0648C0 8.26293 0.856657 9.29091 2.03589 9.50478C9.53192 10.8613 15.4588 16.7881 16.8153 24.2853C17.0291 25.4646 18.0559 26.3212 19.2552 26.3212H19.2588C20.802 26.3212 21.9753 24.9269 21.7023 23.4086C19.9867 13.8625 12.4587 6.33457 2.91263 4.61771C1.39428 4.34477 0 5.51809 0 7.06125Z" fill="url(#paint1_linear_3085_2585)"/>
<circle cx="10.6093" cy="3.03121" r="3.03121" fill="url(#paint2_linear_3085_2585)"/>
<path d="M33 6.98503H40.195V8.18421H34.2848V11.2678H39.467V12.467H34.2848V16.9781H33V6.98503Z" fill="#666B6D"/>
<path d="M44.4782 17.1352C43.4409 17.1352 42.57 16.7688 41.8658 16.0359C41.171 15.3031 40.8236 14.3799 40.8236 13.2664C40.8236 12.1529 41.171 11.2345 41.8658 10.5112C42.5605 9.76883 43.4313 9.39766 44.4782 9.39766C45.5918 9.39766 46.4959 9.80214 47.1907 10.6111V9.55469H48.3898V16.9781H47.1907V15.9217C46.4959 16.7307 45.5918 17.1352 44.4782 17.1352ZM44.6067 15.936C45.33 15.936 45.9344 15.6838 46.4198 15.1794C46.9147 14.675 47.1621 14.0373 47.1621 13.2664C47.1621 12.4955 46.9147 11.8626 46.4198 11.3677C45.9344 10.8538 45.33 10.5968 44.6067 10.5968C43.8929 10.5968 43.2886 10.8538 42.7937 11.3677C42.3083 11.8721 42.0656 12.505 42.0656 13.2664C42.0656 14.0278 42.3083 14.6654 42.7937 15.1794C43.2981 15.6838 43.9024 15.936 44.6067 15.936ZM47.0193 7.07069L44.2641 8.4269L43.8501 7.68455L46.4483 6L47.0193 7.07069Z" fill="#666B6D"/>
<path d="M50.4103 16.9781V6.27124H51.6095V10.6111C52.3042 9.80214 53.2036 9.39766 54.3076 9.39766C55.3545 9.39766 56.2253 9.76883 56.9201 10.5112C57.6244 11.244 57.9765 12.1624 57.9765 13.2664C57.9765 14.3609 57.6244 15.2841 56.9201 16.0359C56.2158 16.7688 55.345 17.1352 54.3076 17.1352C53.2036 17.1352 52.3042 16.7307 51.6095 15.9217V16.9781H50.4103ZM54.1791 10.5968C53.4653 10.5968 52.861 10.8538 52.3661 11.3677C51.8807 11.8721 51.638 12.505 51.638 13.2664C51.638 14.0278 51.8807 14.6654 52.3661 15.1794C52.8705 15.6838 53.4749 15.936 54.1791 15.936C54.9024 15.936 55.5068 15.6838 55.9922 15.1794C56.4871 14.675 56.7345 14.0373 56.7345 13.2664C56.7345 12.4955 56.4871 11.8626 55.9922 11.3677C55.5068 10.8538 54.9024 10.5968 54.1791 10.5968Z" fill="#666B6D"/>
<path d="M60.8107 12.781V16.9781H59.6115V9.55469H60.8107V10.811C61.3722 9.86876 62.2526 9.39766 63.4517 9.39766H63.6516V10.7253C63.4993 10.6682 63.3233 10.6397 63.1234 10.6397C62.4667 10.6397 61.9195 10.8443 61.4817 11.2535C61.0344 11.6723 60.8107 12.1814 60.8107 12.781Z" fill="#666B6D"/>
<path d="M66.1642 16.9781H64.965V9.55469H66.1642V16.9781ZM64.965 8.34124C64.8127 8.17945 64.7366 7.97959 64.7366 7.74166C64.7366 7.50372 64.8127 7.30862 64.965 7.15635C65.1268 6.99455 65.3266 6.91366 65.5646 6.91366C65.8025 6.91366 66.0024 6.99455 66.1642 7.15635C66.326 7.30862 66.4069 7.50372 66.4069 7.74166C66.4069 7.97959 66.326 8.17945 66.1642 8.34124C66.0024 8.49352 65.8025 8.56965 65.5646 8.56965C65.3266 8.56965 65.1268 8.49352 64.965 8.34124Z" fill="#666B6D"/>
<path d="M75.2091 11.639L74.01 11.9959C73.7911 11.5676 73.4723 11.2297 73.0535 10.9823C72.6442 10.7253 72.1827 10.5968 71.6687 10.5968C70.9169 10.5968 70.2935 10.8538 69.7986 11.3677C69.2942 11.8721 69.042 12.505 69.042 13.2664C69.042 14.0183 69.2942 14.6559 69.7986 15.1794C70.303 15.6838 70.9264 15.936 71.6687 15.936C72.1827 15.936 72.6442 15.8123 73.0535 15.5648C73.4723 15.3079 73.7911 14.9652 74.01 14.537L75.2091 14.8939C74.9046 15.5886 74.4335 16.1359 73.7958 16.5356C73.1677 16.9353 72.4587 17.1352 71.6687 17.1352C70.5743 17.1352 69.6511 16.7688 68.8992 16.0359C68.1664 15.2841 67.8 14.3609 67.8 13.2664C67.8 12.1624 68.1664 11.244 68.8992 10.5112C69.6416 9.76883 70.5647 9.39766 71.6687 9.39766C72.4587 9.39766 73.1677 9.59752 73.7958 9.99724C74.4335 10.397 74.9046 10.9442 75.2091 11.639Z" fill="#666B6D"/>
<path d="M80.0006 9.39766C81.1141 9.39766 82.0182 9.80214 82.713 10.6111V9.55469H83.9122V16.9781H82.713V15.9217C82.0182 16.7307 81.1141 17.1352 80.0006 17.1352C78.9632 17.1352 78.0924 16.7688 77.3881 16.0359C76.6934 15.3031 76.346 14.3799 76.346 13.2664C76.346 12.1529 76.6934 11.2345 77.3881 10.5112C78.0829 9.76883 78.9537 9.39766 80.0006 9.39766ZM80.1291 10.5968C79.4153 10.5968 78.8109 10.8538 78.316 11.3677C77.8307 11.8721 77.588 12.505 77.588 13.2664C77.588 14.0278 77.8307 14.6654 78.316 15.1794C78.8205 15.6838 79.4248 15.936 80.1291 15.936C80.8524 15.936 81.4567 15.6838 81.9421 15.1794C82.437 14.675 82.6845 14.0373 82.6845 13.2664C82.6845 12.4955 82.437 11.8626 81.9421 11.3677C81.4567 10.8538 80.8524 10.5968 80.1291 10.5968Z" fill="#666B6D"/>
<path d="M93.1193 9.39766C94.2328 9.39766 95.137 9.80214 95.8317 10.6111V6.27124H97.0309V16.9781H95.8317V15.9217C95.137 16.7307 94.2328 17.1352 93.1193 17.1352C92.082 17.1352 91.2111 16.7688 90.5068 16.0359C89.8121 15.3031 89.4647 14.3799 89.4647 13.2664C89.4647 12.1529 89.8121 11.2345 90.5068 10.5112C91.2016 9.76883 92.0724 9.39766 93.1193 9.39766ZM93.2478 10.5968C92.534 10.5968 91.9297 10.8538 91.4348 11.3677C90.9494 11.8721 90.7067 12.505 90.7067 13.2664C90.7067 14.0278 90.9494 14.6654 91.4348 15.1794C91.9392 15.6838 92.5435 15.936 93.2478 15.936C93.9711 15.936 94.5755 15.6838 95.0608 15.1794C95.5557 14.675 95.8032 14.0373 95.8032 13.2664C95.8032 12.4955 95.5557 11.8626 95.0608 11.3677C94.5755 10.8538 93.9711 10.5968 93.2478 10.5968Z" fill="#666B6D"/>
<path d="M106.289 13.6804H99.908C99.9936 14.3466 100.289 14.9034 100.793 15.3507C101.288 15.7885 101.897 16.0074 102.62 16.0074C103.563 16.0074 104.295 15.6505 104.819 14.9367L105.989 15.3079C105.647 15.8789 105.176 16.3262 104.576 16.6498C103.986 16.9734 103.334 17.1352 102.62 17.1352C101.497 17.1352 100.555 16.7688 99.7937 16.0359C99.0419 15.2936 98.6659 14.3704 98.6659 13.2664C98.6659 12.1624 99.0324 11.244 99.7652 10.5112C100.498 9.76883 101.407 9.39766 102.492 9.39766C103.586 9.39766 104.495 9.76883 105.219 10.5112C105.951 11.244 106.318 12.1624 106.318 13.2664C106.318 13.295 106.308 13.433 106.289 13.6804ZM99.9222 12.7097H105.076C104.962 12.072 104.662 11.5438 104.176 11.125C103.701 10.7158 103.13 10.5112 102.463 10.5112C101.816 10.5112 101.259 10.7158 100.793 11.125C100.327 11.5343 100.036 12.0625 99.9222 12.7097Z" fill="#666B6D"/>
<path d="M118.533 9.05503L117.262 9.42621C117.176 9.04552 116.929 8.72669 116.52 8.46972C116.12 8.20324 115.649 8.07 115.106 8.07C114.507 8.07 114.012 8.21752 113.622 8.51255C113.231 8.79807 113.036 9.15972 113.036 9.59752C113.036 10.0734 113.303 10.4446 113.836 10.711C114.255 10.9109 114.897 11.1203 115.763 11.3392C116.467 11.52 117.015 11.7056 117.405 11.8959C118.318 12.3242 118.799 13.0713 118.847 14.1372C118.847 15.0319 118.504 15.7552 117.819 16.3072C117.153 16.8592 116.287 17.1352 115.221 17.1352C114.259 17.1352 113.441 16.9115 112.765 16.4642C112.089 16.0264 111.661 15.4554 111.48 14.7511L112.765 14.3657C112.841 14.8034 113.108 15.1699 113.565 15.4649C114.031 15.7504 114.583 15.8932 115.221 15.8932C115.887 15.8932 116.444 15.7409 116.891 15.4363C117.338 15.1223 117.562 14.7226 117.562 14.2372C117.562 13.7423 117.324 13.3711 116.848 13.1237C116.429 12.9048 115.949 12.7287 115.406 12.5954L114.807 12.4384L114.25 12.2671L113.665 12.0672C113.636 12.0577 113.593 12.0434 113.536 12.0244C113.488 11.9959 113.427 11.9673 113.35 11.9388C113.274 11.9007 113.208 11.8674 113.151 11.8388C112.913 11.7246 112.632 11.52 112.308 11.225C111.985 10.9014 111.794 10.3874 111.737 9.68317C111.737 8.83614 112.051 8.1509 112.679 7.62745C113.317 7.09448 114.121 6.828 115.092 6.828C115.968 6.828 116.715 7.03738 117.333 7.45614C117.962 7.86538 118.361 8.39835 118.533 9.05503Z" fill="#666B6D"/>
<path d="M121.221 16.0359C120.488 15.2841 120.122 14.3609 120.122 13.2664C120.122 12.1624 120.488 11.244 121.221 10.5112C121.963 9.76883 122.886 9.39766 123.99 9.39766C125.094 9.39766 126.017 9.76883 126.76 10.5112C127.502 11.244 127.873 12.1624 127.873 13.2664C127.873 14.3704 127.502 15.2936 126.76 16.0359C126.008 16.7688 125.085 17.1352 123.99 17.1352C122.896 17.1352 121.973 16.7688 121.221 16.0359ZM123.99 15.936C124.742 15.936 125.37 15.6838 125.875 15.1794C126.379 14.6559 126.631 14.0183 126.631 13.2664C126.631 12.505 126.379 11.8721 125.875 11.3677C125.37 10.8538 124.742 10.5968 123.99 10.5968C123.238 10.5968 122.615 10.8538 122.12 11.3677C121.616 11.8721 121.364 12.505 121.364 13.2664C121.364 14.0183 121.616 14.6559 122.12 15.1794C122.625 15.6838 123.248 15.936 123.99 15.936Z" fill="#666B6D"/>
<path d="M131.128 8.59821V9.55469H133.112V10.6111H131.128V16.9781H129.928V10.6111H128.686V9.55469H129.928V8.45545C129.928 7.83683 130.138 7.31814 130.557 6.89938C130.975 6.48062 131.494 6.27124 132.113 6.27124H133.098V7.42759H132.198C131.894 7.42759 131.637 7.54179 131.427 7.77021C131.228 7.9891 131.128 8.2651 131.128 8.59821Z" fill="#666B6D"/>
<path d="M133.565 10.6111V9.55469H134.764V8.07H135.964V9.55469H138.034V10.6111H135.964V14.6512C135.964 14.9843 136.063 15.265 136.263 15.4934C136.473 15.7123 136.73 15.8218 137.034 15.8218H138.034V16.9781H136.949C136.33 16.9781 135.811 16.7688 135.392 16.35C134.974 15.9312 134.764 15.4126 134.764 14.7939V10.6111H133.565Z" fill="#666B6D"/>
<path d="M142.292 16.9781H141.25L138.723 9.55469H139.937L141.75 15.1223L143.563 9.55469H144.619L146.432 15.1366L148.259 9.55469H149.473L146.932 16.9781H145.89L144.091 11.5533L142.292 16.9781Z" fill="#666B6D"/>
<path d="M153.694 9.39766C154.808 9.39766 155.712 9.80214 156.407 10.6111V9.55469H157.606V16.9781H156.407V15.9217C155.712 16.7307 154.808 17.1352 153.694 17.1352C152.657 17.1352 151.786 16.7688 151.082 16.0359C150.387 15.3031 150.04 14.3799 150.04 13.2664C150.04 12.1529 150.387 11.2345 151.082 10.5112C151.776 9.76883 152.647 9.39766 153.694 9.39766ZM153.823 10.5968C153.109 10.5968 152.504 10.8538 152.01 11.3677C151.524 11.8721 151.282 12.505 151.282 13.2664C151.282 14.0278 151.524 14.6654 152.01 15.1794C152.514 15.6838 153.118 15.936 153.823 15.936C154.546 15.936 155.15 15.6838 155.636 15.1794C156.131 14.675 156.378 14.0373 156.378 13.2664C156.378 12.4955 156.131 11.8626 155.636 11.3677C155.15 10.8538 154.546 10.5968 153.823 10.5968Z" fill="#666B6D"/>
<path d="M160.825 12.781V16.9781H159.626V9.55469H160.825V10.811C161.387 9.86876 162.267 9.39766 163.466 9.39766H163.666V10.7253C163.514 10.6682 163.338 10.6397 163.138 10.6397C162.481 10.6397 161.934 10.8443 161.496 11.2535C161.049 11.6723 160.825 12.1814 160.825 12.781Z" fill="#666B6D"/>
<path d="M171.869 13.6804H165.488C165.573 14.3466 165.868 14.9034 166.373 15.3507C166.868 15.7885 167.477 16.0074 168.2 16.0074C169.142 16.0074 169.875 15.6505 170.399 14.9367L171.569 15.3079C171.227 15.8789 170.755 16.3262 170.156 16.6498C169.566 16.9734 168.914 17.1352 168.2 17.1352C167.077 17.1352 166.135 16.7688 165.373 16.0359C164.622 15.2936 164.246 14.3704 164.246 13.2664C164.246 12.1624 164.612 11.244 165.345 10.5112C166.078 9.76883 166.987 9.39766 168.072 9.39766C169.166 9.39766 170.075 9.76883 170.798 10.5112C171.531 11.244 171.898 12.1624 171.898 13.2664C171.898 13.295 171.888 13.433 171.869 13.6804ZM165.502 12.7097H170.656C170.541 12.072 170.242 11.5438 169.756 11.125C169.28 10.7158 168.709 10.5112 168.043 10.5112C167.396 10.5112 166.839 10.7158 166.373 11.125C165.906 11.5343 165.616 12.0625 165.502 12.7097Z" fill="#666B6D"/>
<path d="M177 6.18359H178.867V17.4009H177V6.18359Z" fill="#666B6D"/>
<path d="M186.217 10.5743C185.09 10.5743 183.98 11.0786 183.358 11.6507V17.4027H181.676V9.27982H183.358V10.5077C184.098 9.81829 185.46 9.07812 186.772 9.07812C188.84 9.07812 190.186 10.0872 190.186 12.3407V17.4027H188.504V12.4752C188.505 10.9942 187.647 10.5743 186.217 10.5743Z" fill="#666B6D"/>
<path d="M192.338 13.3313C192.338 10.8927 194.491 9.07617 197.417 9.07617C199.435 9.07617 200.646 9.83283 201.42 10.6738L200.377 11.7673C199.654 10.9434 198.628 10.573 197.468 10.573C195.483 10.573 194.104 11.6328 194.104 13.3313C194.104 14.9962 195.483 16.1062 197.468 16.1062C198.628 16.1062 199.654 15.7364 200.377 14.9119L201.42 16.0053C200.646 16.8463 199.435 17.603 197.417 17.603C194.491 17.603 192.338 15.77 192.338 13.3313Z" fill="#666B6D"/>
<path d="M207.187 10.575C205.926 10.575 204.866 10.9282 204.009 11.6684L203.118 10.5413C204.228 9.56586 205.539 9.07812 207.255 9.07812C209.273 9.07812 211.291 9.83479 211.291 12.1054V17.4033H209.593V16.5286C208.819 17.168 207.743 17.605 206.313 17.605C204.682 17.605 202.646 16.7639 202.646 14.931C202.646 12.9464 204.665 12.257 206.313 12.257C207.743 12.257 208.835 12.6604 209.593 13.3168V12.1225C209.592 11.1635 208.718 10.575 207.187 10.575ZM206.834 16.4107C207.928 16.4107 208.953 16.1246 209.593 15.5868V14.2751C208.953 13.7538 207.928 13.4849 206.834 13.4849C205.287 13.4849 204.413 14.0233 204.413 14.9481C204.413 15.8728 205.287 16.4107 206.834 16.4107Z" fill="#666B6D"/>
<path d="M217.984 10.575C216.722 10.575 215.663 10.9282 214.806 11.6684L213.915 10.5413C215.025 9.56586 216.336 9.07812 218.052 9.07812C220.07 9.07812 222.088 9.83479 222.088 12.1054V17.4033H220.39V16.5286C219.616 17.168 218.54 17.605 217.11 17.605C215.479 17.605 213.443 16.7639 213.443 14.931C213.443 12.9464 215.462 12.257 217.11 12.257C218.54 12.257 219.632 12.6604 220.39 13.3168V12.1225C220.388 11.1635 219.514 10.575 217.984 10.575ZM217.631 16.4107C218.724 16.4107 219.75 16.1246 220.389 15.5868V14.2751C219.75 13.7538 218.724 13.4849 217.631 13.4849C216.084 13.4849 215.209 14.0233 215.209 14.9481C215.209 15.8728 216.083 16.4107 217.631 16.4107Z" fill="#666B6D"/>
<path d="M224.123 15.4351L225.267 14.0898C226.36 15.116 228.126 15.9564 230.278 15.9564C232.7 15.9564 233.861 15.1827 233.861 14.2579C233.861 13.0135 232.364 12.7947 229.976 12.5423C227.15 12.2397 224.51 11.8021 224.51 9.2962C224.51 7.27802 226.68 6 229.925 6C232.33 6 234.214 6.70655 235.508 7.95095L234.348 9.2797C233.339 8.33784 231.808 7.64841 229.79 7.64841C227.688 7.64841 226.46 8.20337 226.46 9.12812C226.46 10.2216 227.755 10.4232 230.295 10.7429C233.121 11.0962 235.811 11.5332 235.811 14.0562C235.811 15.9399 233.944 17.6048 230.177 17.6048C227.57 17.6042 225.216 16.5279 224.123 15.4351Z" fill="#666B6D"/>
<defs>
<linearGradient id="paint0_linear_3085_2585" x1="19.4566" y1="4.5321" x2="-0.46086" y2="24.0492" gradientUnits="userSpaceOnUse">
<stop stop-color="#1CAAE8" stop-opacity="0"/>
<stop offset="1" stop-color="#1CAAE8"/>
</linearGradient>
<linearGradient id="paint1_linear_3085_2585" x1="21.8062" y1="23.6752" x2="2.38919" y2="4.59178" gradientUnits="userSpaceOnUse">
<stop stop-color="#00878D" stop-opacity="0"/>
<stop offset="1" stop-color="#00878D"/>
</linearGradient>
<linearGradient id="paint2_linear_3085_2585" x1="10.6093" y1="0" x2="10.6093" y2="6.06241" gradientUnits="userSpaceOnUse">
<stop stop-color="#8BC731"/>
<stop offset="1" stop-color="#8BC731" stop-opacity="0.2"/>
</linearGradient>
</defs>
</svg>
